<?xml version="1.0" standalone="no"?>
<svg xmlns="http://www.w3.org/2000/svg" viewBox="0 0 105.192 36" width="105.192" height="36"><g fill="#000000" color="#000000" transform="translate(77.192, 4.7636363636363654) scale(0.509091)"><svg width="55.0" height="52.0" x="0.0" y="0.0" viewBox="0 0 55 52"><path fill="currentColor" fill-rule="evenodd" d="M29.119 24.154c-.058-.868-.753-1.563-1.621-1.563-.869 0-1.563.695-1.621 1.563-.232 4.979-.984 20.436-2.605 26.282-.232.753.347 1.564 1.157 1.564h6.079c.81 0 1.39-.753 1.158-1.564-1.563-5.846-2.316-21.303-2.547-26.282m11.751-6.367c1.274.115 4.747.29 7.178-1.68 2.432-1.967 3.011-5.383 3.184-6.657.058-.289-.173-.52-.462-.52-1.274-.116-4.748-.29-7.18 1.678-2.43 1.969-3.01 5.384-3.183 6.658 0 .231.232.463.463.52m-5.963-5.036c1.1-.347 3.763-1.331 4.98-3.53 1.215-2.2.694-4.98.346-6.08-.057-.289-.346-.405-.636-.347-1.1.348-3.763 1.332-4.979 3.532-1.216 2.2-.695 4.978-.347 6.078.058.232.347.405.636.347m-4.804 6.89c.868.23 2.836.52 4.4-.348 1.562-.868 2.257-2.721 2.547-3.59.057-.289-.058-.578-.348-.636-.868-.232-2.836-.521-4.4.347-1.562.869-2.257 2.721-2.547 3.59a.463.463 0 0 0 .348.636m10.13 3.126c-.81-.52-2.72-1.62-4.63-1.273-1.969.347-3.358 1.968-3.937 2.72-.174.232-.116.521.116.695.81.521 2.72 1.621 4.63 1.274 1.969-.348 3.358-1.969 3.937-2.721.174-.232.116-.521-.116-.695m-6.02 6.194c-.231-.115-.58-.057-.694.232-.406.868-1.1 2.837-.522 4.573.579 1.795 2.373 2.895 3.184 3.358.232.116.579.058.695-.232.405-.868 1.1-2.836.52-4.573-.578-1.794-2.373-2.894-3.183-3.358m12.157.174c-2.027-1.62-4.979-1.563-6.137-1.447-.29 0-.462.29-.462.579.115 1.157.694 4.052 2.72 5.673 2.027 1.62 4.978 1.563 6.136 1.447.29 0 .463-.29.463-.579-.115-1.158-.636-4.052-2.72-5.673m8.452-6.426c-.81-.81-3.01-2.605-5.5-2.547-2.489.058-4.69 1.91-5.5 2.663-.173.174-.173.521 0 .695.81.81 3.011 2.605 5.5 2.547 2.547 0 4.69-1.91 5.5-2.663.23-.174.23-.463 0-.695m-43.65.116c-.81-.81-2.952-2.663-5.499-2.663-2.547 0-4.689 1.795-5.5 2.547a.434.434 0 0 0 0 .695c.811.81 2.953 2.663 5.5 2.663s4.69-1.795 5.5-2.547c.173-.174.173-.521 0-.695m-4.284-6.715c2.431 1.968 5.905 1.794 7.178 1.679.29 0 .463-.29.463-.521-.115-1.274-.752-4.747-3.184-6.658C8.973 8.64 5.442 8.756 4.168 8.93c-.29 0-.463.289-.463.52.174 1.274.753 4.748 3.184 6.658m13.199-3.358c.29.058.521-.058.637-.347.29-1.1.868-3.879-.348-6.078-1.215-2.2-3.878-3.184-4.978-3.532-.29-.058-.521.058-.637.348-.29 1.1-.868 3.878.347 6.078 1.274 2.2 3.937 3.184 4.979 3.531m-1.795 2.374a.463.463 0 0 0-.347.637c.29.868.984 2.72 2.547 3.589 1.563.868 3.474.579 4.4.347a.463.463 0 0 0 .347-.637c-.29-.868-.984-2.72-2.547-3.589-1.563-.868-3.473-.579-4.4-.347m4.979 9.783c.231-.173.29-.463.116-.694-.58-.753-2.026-2.432-3.937-2.721-1.968-.348-3.82.752-4.631 1.273-.232.174-.29.463-.116.695.58.753 2.026 2.431 3.937 2.72 1.91.348 3.82-.694 4.63-1.273m-2.489 4.052c-.81.464-2.605 1.564-3.183 3.358-.58 1.795.115 3.763.52 4.573.116.29.406.348.695.232.81-.463 2.605-1.563 3.184-3.358.579-1.794-.116-3.762-.52-4.573-.117-.232-.406-.347-.696-.232m-6.078-1.273c-1.158-.116-4.052-.174-6.136 1.447-2.026 1.621-2.605 4.515-2.721 5.673-.058.29.174.521.463.58 1.158.115 4.052.173 6.136-1.448 2.026-1.621 2.605-4.516 2.721-5.673 0-.348-.174-.58-.463-.58m13.14-14.24c.928-.926 3.243-3.531 3.243-6.657S28.772 1.056 27.845.13c-.174-.173-.52-.173-.695 0-.926.926-3.242 3.532-3.242 6.658 0 3.126 2.316 5.73 3.242 6.657a.434.434 0 0 0 .695 0"></path></svg></g><path fill="#000000" fill-rule="nonzero" d="M1.78 15.48L0 15.48L0 0.29Q2.14 0 3.70 0L3.70 0Q9.07 0 9.07 4.61L9.07 4.61Q9.07 6.94 7.56 8.18L7.56 8.18Q6.19 9.29 3.89 9.29L3.89 9.29Q2.86 9.29 1.78 9.14L1.78 9.14L1.78 15.48ZM1.78 1.58L1.78 1.58L1.78 7.70Q2.64 7.85 3.79 7.85L3.79 7.85Q7.20 7.85 7.20 4.61L7.20 4.61Q7.20 1.42 3.70 1.42L3.70 1.42Q2.59 1.42 1.78 1.58ZM12.14 0.86L13.75 0L13.75 15.48L12.14 15.48L12.14 0.86ZM25.49 8.86L25.49 15.48L24.29 15.48L24.05 14.30Q22.58 15.77 20.40 15.77L20.40 15.77Q18.74 15.77 17.76 14.84Q16.78 13.92 16.78 12.38L16.78 12.38Q16.78 8.64 22.25 8.64L22.25 8.64L23.90 8.64L23.90 8.50Q23.90 5.64 21.12 5.64L21.12 5.64Q19.54 5.64 18.07 6.70L18.07 6.70L17.54 5.81Q19.20 4.30 21.58 4.30L21.58 4.30Q23.47 4.30 24.48 5.47Q25.49 6.65 25.49 8.86L25.49 8.86ZM23.90 12.77L23.90 9.82L22.44 9.82Q18.50 9.82 18.50 12.24L18.50 12.24Q18.50 13.27 19.12 13.86Q19.73 14.45 20.83 14.45L20.83 14.45Q21.79 14.45 22.68 13.97Q23.57 13.49 23.90 12.77L23.90 12.77ZM38.35 8.98L38.35 15.48L36.77 15.48L36.77 9.10Q36.77 5.69 33.79 5.69L33.79 5.69Q32.93 5.69 32.09 6.10Q31.25 6.50 30.79 7.13L30.79 7.13L30.79 15.48L29.18 15.48L29.18 4.58L30.53 4.58L30.67 5.74L30.74 5.74Q32.16 4.30 34.30 4.30L34.30 4.30Q38.35 4.30 38.35 8.98L38.35 8.98ZM47.47 5.90L44.14 5.90L44.11 12.72Q44.11 14.47 45.53 14.47L45.53 14.47Q46.32 14.47 47.09 14.06L47.09 14.06L47.66 14.95Q46.49 15.77 45.19 15.77L45.19 15.77Q43.92 15.77 43.22 14.98Q42.53 14.18 42.53 12.77L42.53 12.77L42.53 5.90L40.87 5.90L40.87 4.58L42.55 4.58L42.55 2.21L44.14 1.39L44.14 4.58L47.47 4.58L47.47 5.90ZM54.70 9.07L54.70 10.39L49.27 10.39L49.27 9.07L54.70 9.07ZM57.46 0.29L59.23 0.29L59.23 15.48L57.46 15.48L57.46 0.29ZM69 5.90L65.66 5.90L65.64 12.72Q65.64 14.47 67.06 14.47L67.06 14.47Q67.85 14.47 68.62 14.06L68.62 14.06L69.19 14.95Q68.02 15.77 66.72 15.77L66.72 15.77Q65.45 15.77 64.75 14.98Q64.06 14.18 64.06 12.77L64.06 12.77L64.06 5.90L62.40 5.90L62.40 4.58L64.08 4.58L64.08 2.21L65.66 1.39L65.66 4.58L69 4.58L69 5.90Z" transform="translate(0, 10.116)"></path></svg>