<?xml version="1.0" standalone="no"?>
<svg xmlns="http://www.w3.org/2000/svg" viewBox="0 0 81 63" width="81" height="63"><g fill="#b9e937" color="#b9e937" transform="translate(22.532 0) scale(0.6363637) "><svg width="55.0" height="52.0" x="0.0" y="0.0" viewBox="0 0 55 52"><path fill="currentColor" fill-rule="evenodd" d="M29.119 24.154c-.058-.868-.753-1.563-1.621-1.563-.869 0-1.563.695-1.621 1.563-.232 4.979-.984 20.436-2.605 26.282-.232.753.347 1.564 1.157 1.564h6.079c.81 0 1.39-.753 1.158-1.564-1.563-5.846-2.316-21.303-2.547-26.282m11.751-6.367c1.274.115 4.747.29 7.178-1.68 2.432-1.967 3.011-5.383 3.184-6.657.058-.289-.173-.52-.462-.52-1.274-.116-4.748-.29-7.18 1.678-2.43 1.969-3.01 5.384-3.183 6.658 0 .231.232.463.463.52m-5.963-5.036c1.1-.347 3.763-1.331 4.98-3.53 1.215-2.2.694-4.98.346-6.08-.057-.289-.346-.405-.636-.347-1.1.348-3.763 1.332-4.979 3.532-1.216 2.2-.695 4.978-.347 6.078.058.232.347.405.636.347m-4.804 6.89c.868.23 2.836.52 4.4-.348 1.562-.868 2.257-2.721 2.547-3.59.057-.289-.058-.578-.348-.636-.868-.232-2.836-.521-4.4.347-1.562.869-2.257 2.721-2.547 3.59a.463.463 0 0 0 .348.636m10.13 3.126c-.81-.52-2.72-1.62-4.63-1.273-1.969.347-3.358 1.968-3.937 2.72-.174.232-.116.521.116.695.81.521 2.72 1.621 4.63 1.274 1.969-.348 3.358-1.969 3.937-2.721.174-.232.116-.521-.116-.695m-6.02 6.194c-.231-.115-.58-.057-.694.232-.406.868-1.1 2.837-.522 4.573.579 1.795 2.373 2.895 3.184 3.358.232.116.579.058.695-.232.405-.868 1.1-2.836.52-4.573-.578-1.794-2.373-2.894-3.183-3.358m12.157.174c-2.027-1.62-4.979-1.563-6.137-1.447-.29 0-.462.29-.462.579.115 1.157.694 4.052 2.72 5.673 2.027 1.62 4.978 1.563 6.136 1.447.29 0 .463-.29.463-.579-.115-1.158-.636-4.052-2.72-5.673m8.452-6.426c-.81-.81-3.01-2.605-5.5-2.547-2.489.058-4.69 1.91-5.5 2.663-.173.174-.173.521 0 .695.81.81 3.011 2.605 5.5 2.547 2.547 0 4.69-1.91 5.5-2.663.23-.174.23-.463 0-.695m-43.65.116c-.81-.81-2.952-2.663-5.499-2.663-2.547 0-4.689 1.795-5.5 2.547a.434.434 0 0 0 0 .695c.811.81 2.953 2.663 5.5 2.663s4.69-1.795 5.5-2.547c.173-.174.173-.521 0-.695m-4.284-6.715c2.431 1.968 5.905 1.794 7.178 1.679.29 0 .463-.29.463-.521-.115-1.274-.752-4.747-3.184-6.658C8.973 8.64 5.442 8.756 4.168 8.93c-.29 0-.463.289-.463.52.174 1.274.753 4.748 3.184 6.658m13.199-3.358c.29.058.521-.058.637-.347.29-1.1.868-3.879-.348-6.078-1.215-2.2-3.878-3.184-4.978-3.532-.29-.058-.521.058-.637.348-.29 1.1-.868 3.878.347 6.078 1.274 2.2 3.937 3.184 4.979 3.531m-1.795 2.374a.463.463 0 0 0-.347.637c.29.868.984 2.72 2.547 3.589 1.563.868 3.474.579 4.4.347a.463.463 0 0 0 .347-.637c-.29-.868-.984-2.72-2.547-3.589-1.563-.868-3.473-.579-4.4-.347m4.979 9.783c.231-.173.29-.463.116-.694-.58-.753-2.026-2.432-3.937-2.721-1.968-.348-3.82.752-4.631 1.273-.232.174-.29.463-.116.695.58.753 2.026 2.431 3.937 2.72 1.91.348 3.82-.694 4.63-1.273m-2.489 4.052c-.81.464-2.605 1.564-3.183 3.358-.58 1.795.115 3.763.52 4.573.116.29.406.348.695.232.81-.463 2.605-1.563 3.184-3.358.579-1.794-.116-3.762-.52-4.573-.117-.232-.406-.347-.696-.232m-6.078-1.273c-1.158-.116-4.052-.174-6.136 1.447-2.026 1.621-2.605 4.515-2.721 5.673-.058.29.174.521.463.58 1.158.115 4.052.173 6.136-1.448 2.026-1.621 2.605-4.516 2.721-5.673 0-.348-.174-.58-.463-.58m13.14-14.24c.928-.926 3.243-3.531 3.243-6.657S28.772 1.056 27.845.13c-.174-.173-.52-.173-.695 0-.926.926-3.242 3.532-3.242 6.658 0 3.126 2.316 5.73 3.242 6.657a.434.434 0 0 0 .695 0"></path></svg></g><line x1="23.581999999999997" y1="39.09090909090909" x2="56.482" y2="39.09090909090909" stroke="#57d131" stroke-linecap="round"></line><path fill="#57d131" fill-rule="nonzero" d="M7.37 2.09L7.37 2.09Q6.60 2.09 6.14 2.12Q5.69 2.16 5.36 2.20Q5.04 2.23 4.75 2.28Q4.46 2.33 4.08 2.33L4.08 2.33L4.08 17.42L2.62 17.42L2.62 2.28Q1.85 2.16 1.16 1.85Q0.48 1.54 0 0.86L0 0.86L0.79 0.05Q1.30 0.53 1.99 0.77Q2.69 1.01 3.65 1.01L3.65 1.01Q4.20 1.01 4.58 0.97Q4.97 0.94 5.35 0.89Q5.74 0.84 6.20 0.80Q6.67 0.77 7.44 0.77L7.44 0.77Q8.57 0.77 9.49 1.16Q10.42 1.56 11.06 2.27Q11.71 2.98 12.07 3.92Q12.43 4.87 12.43 5.98L12.43 5.98Q12.43 7.10 12.07 8.05Q11.71 9 11.06 9.71Q10.42 10.42 9.49 10.81Q8.57 11.21 7.44 11.21L7.44 11.21Q6.98 11.21 6.60 11.21Q6.22 11.21 5.93 11.18L5.93 11.18Q5.59 11.18 5.30 11.16L5.30 11.16L5.30 9.84Q5.59 9.86 5.93 9.86L5.93 9.86Q6.22 9.89 6.59 9.89Q6.96 9.89 7.37 9.89L7.37 9.89Q8.18 9.89 8.86 9.60Q9.53 9.31 10.01 8.80Q10.49 8.28 10.75 7.56Q11.02 6.84 11.02 5.98L11.02 5.98Q11.02 5.11 10.75 4.40Q10.49 3.70 10.01 3.18Q9.53 2.66 8.86 2.38Q8.18 2.09 7.37 2.09ZM15.31 13.99L15.31 0L16.63 0L16.63 13.99Q16.63 14.95 16.87 15.65Q17.11 16.34 17.59 16.85L17.59 16.85L16.78 17.64Q16.32 17.33 16.03 16.90Q15.74 16.46 15.59 15.98Q15.43 15.50 15.37 15Q15.31 14.50 15.31 13.99L15.31 13.99ZM23.95 17.66L23.95 17.66Q23.14 17.66 22.43 17.45Q21.72 17.23 21.20 16.80Q20.69 16.37 20.40 15.72Q20.11 15.07 20.11 14.23L20.11 14.23Q20.11 13.22 20.56 12.55Q21 11.88 21.72 11.46Q22.44 11.04 23.34 10.87Q24.24 10.70 25.18 10.70L25.18 10.70L27.50 10.70L27.50 9.36Q27.50 7.87 26.90 7.18Q26.30 6.48 25.01 6.48L25.01 6.48Q24.05 6.48 23.06 6.89Q22.08 7.30 21.46 7.78L21.46 7.78L20.81 6.77Q21.50 6.14 22.64 5.69Q23.78 5.23 25.01 5.23L25.01 5.23Q27.02 5.23 27.92 6.25Q28.82 7.27 28.82 9.10L28.82 9.10L28.82 13.97Q28.82 15.82 29.76 16.82L29.76 16.82L28.94 17.62Q28.44 17.23 28.15 16.74Q27.86 16.25 27.70 15.70L27.70 15.70Q27.24 16.61 26.30 17.14Q25.37 17.66 23.95 17.66ZM23.95 16.42L23.95 16.42Q24.67 16.42 25.30 16.21Q25.92 16.01 26.41 15.62Q26.90 15.24 27.19 14.66Q27.48 14.09 27.50 13.34L27.50 13.34L27.50 11.93L25.18 11.93Q24.50 11.93 23.84 12.01Q23.18 12.10 22.66 12.35Q22.13 12.60 21.80 13.06Q21.48 13.51 21.48 14.23L21.48 14.23Q21.48 15.43 22.13 15.92Q22.78 16.42 23.95 16.42ZM42.77 17.42L41.50 17.42Q41.11 16.70 40.99 15.80Q40.87 14.90 40.87 14.21L40.87 14.21Q40.87 13.63 40.90 13.13Q40.92 12.62 40.96 12.06Q40.99 11.50 41.03 10.85Q41.06 10.20 41.06 9.36L41.06 9.36Q41.06 7.87 40.39 7.18Q39.72 6.48 38.35 6.48L38.35 6.48Q37.06 6.48 36.17 7.12Q35.28 7.75 34.44 8.90L34.44 8.90L34.44 8.95L34.44 17.42L33.12 17.42L33.12 8.95Q33.12 7.99 32.88 7.30Q32.64 6.60 32.16 6.10L32.16 6.10L32.98 5.30Q33.55 5.71 33.86 6.30Q34.18 6.89 34.30 7.51L34.30 7.51Q35.09 6.36 36.11 5.80Q37.13 5.23 38.35 5.23L38.35 5.23Q40.46 5.23 41.42 6.24Q42.38 7.25 42.38 9.10L42.38 9.10Q42.38 9.96 42.35 10.67Q42.31 11.38 42.28 12Q42.24 12.62 42.22 13.20Q42.19 13.78 42.19 14.35L42.19 14.35Q42.19 15.14 42.31 15.86Q42.43 16.58 42.77 17.42L42.77 17.42ZM46.37 13.99L46.37 5.33Q46.37 4.37 46.13 3.67Q45.89 2.98 45.41 2.47L45.41 2.47L46.22 1.68Q46.68 2.02 46.96 2.44Q47.23 2.86 47.40 3.34Q47.57 3.82 47.63 4.32Q47.69 4.82 47.69 5.33L47.69 5.33L47.69 5.47L51.48 5.47L51.48 6.79L47.69 6.79L47.69 13.99Q47.69 14.69 47.83 15.16Q47.98 15.62 48.22 15.90Q48.46 16.18 48.79 16.30Q49.13 16.42 49.49 16.42L49.49 16.42Q49.92 16.42 50.40 16.28Q50.88 16.15 51.31 15.97Q51.74 15.79 52.09 15.59Q52.44 15.38 52.66 15.26L52.66 15.26L53.28 16.27Q53.09 16.42 52.67 16.66Q52.25 16.90 51.70 17.12Q51.14 17.35 50.51 17.51Q49.87 17.66 49.25 17.66L49.25 17.66Q48.67 17.66 48.16 17.48Q47.64 17.30 47.24 16.88Q46.85 16.46 46.61 15.76Q46.37 15.05 46.37 13.99L46.37 13.99ZM62.45 9.41L62.45 10.78L55.32 10.78L55.32 9.41L62.45 9.41ZM67.13 1.01L68.59 1.01L68.59 17.42L67.13 17.42L67.13 1.01ZM73.15 13.99L73.15 5.33Q73.15 4.37 72.91 3.67Q72.67 2.98 72.19 2.47L72.19 2.47L73.01 1.68Q73.46 2.02 73.74 2.44Q74.02 2.86 74.18 3.34Q74.35 3.82 74.41 4.32Q74.47 4.82 74.47 5.33L74.47 5.33L74.47 5.47L78.26 5.47L78.26 6.79L74.47 6.79L74.47 13.99Q74.47 14.69 74.62 15.16Q74.76 15.62 75 15.90Q75.24 16.18 75.58 16.30Q75.91 16.42 76.27 16.42L76.27 16.42Q76.70 16.42 77.18 16.28Q77.66 16.15 78.10 15.97Q78.53 15.79 78.88 15.59Q79.22 15.38 79.44 15.26L79.44 15.26L80.06 16.27Q79.87 16.42 79.45 16.66Q79.03 16.90 78.48 17.12Q77.93 17.35 77.29 17.51Q76.66 17.66 76.03 17.66L76.03 17.66Q75.46 17.66 74.94 17.48Q74.42 17.30 74.03 16.88Q73.63 16.46 73.39 15.76Q73.15 15.05 73.15 13.99L73.15 13.99Z" transform="translate(0, 45.091)"></path></svg>